<?xml version="1.0" encoding="iso-8859-1"?>
<!-- Generator: Adobe Illustrator 19.0.0, SVG Export Plug-In . SVG Version: 6.00 Build 0)  -->
<svg version="1.1" id="Layer_1" xmlns="http://www.w3.org/2000/svg" xmlns:xlink="http://www.w3.org/1999/xlink" x="0px" y="0px"
	 viewBox="0 0 512 512" style="enable-background:new 0 0 512 512;" xml:space="preserve">
<g>
	<g>
		<g>
			<path d="M469.333,64H42.667C19.146,64,0,83.135,0,106.667v170.667C0,300.865,19.146,320,42.667,320h426.667
				C492.854,320,512,300.865,512,277.333V106.667C512,83.135,492.854,64,469.333,64z M53.333,128h320
				c5.896,0,10.667,4.771,10.667,10.667c0,5.896-4.771,10.667-10.667,10.667h-320c-5.896,0-10.667-4.771-10.667-10.667
				C42.667,132.771,47.438,128,53.333,128z M469.333,266.667c0,5.896-4.771,10.667-10.667,10.667H53.333
				c-5.896,0-10.667-4.771-10.667-10.667V224c0-5.896,4.771-10.667,10.667-10.667h405.333c5.896,0,10.667,4.771,10.667,10.667
				V266.667z M448,149.333c-11.771,0-21.333-9.573-21.333-21.333s9.563-21.333,21.333-21.333c11.771,0,21.333,9.573,21.333,21.333
				S459.771,149.333,448,149.333z"/>
			<path d="M384,352c0-5.896-4.771-10.667-10.667-10.667c-5.896,0-10.667,4.771-10.667,10.667c0,23.854,6.271,36.385,11.792,47.438
				c5.125,10.24,9.542,19.083,9.542,37.896c0,5.896,4.771,10.667,10.667,10.667s10.667-4.771,10.667-10.667
				c0-23.854-6.271-36.385-11.792-47.438C388.417,379.656,384,370.813,384,352z"/>
			<path d="M138.667,341.333c-5.896,0-10.667,4.771-10.667,10.667c0,18.813-4.417,27.656-9.542,37.896
				c-5.521,11.052-11.792,23.583-11.792,47.438c0,5.896,4.771,10.667,10.667,10.667c5.896,0,10.667-4.771,10.667-10.667
				c0-18.813,4.417-27.656,9.542-37.896c5.521-11.052,11.792-23.583,11.792-47.438C149.333,346.104,144.563,341.333,138.667,341.333
				z"/>
			<path d="M256,341.333c-5.896,0-10.667,4.771-10.667,10.667v85.333c0,5.896,4.771,10.667,10.667,10.667
				s10.667-4.771,10.667-10.667V352C266.667,346.104,261.896,341.333,256,341.333z"/>
		</g>
	</g>
</g>
<g>
</g>
<g>
</g>
<g>
</g>
<g>
</g>
<g>
</g>
<g>
</g>
<g>
</g>
<g>
</g>
<g>
</g>
<g>
</g>
<g>
</g>
<g>
</g>
<g>
</g>
<g>
</g>
<g>
</g>
</svg>
