<?xml version="1.0" encoding="iso-8859-1"?>
<!-- Generator: Adobe Illustrator 19.0.0, SVG Export Plug-In . SVG Version: 6.00 Build 0)  -->
<svg version="1.1" id="Capa_1" xmlns="http://www.w3.org/2000/svg" xmlns:xlink="http://www.w3.org/1999/xlink" x="0px" y="0px"
	 viewBox="0 0 512.001 512.001" style="enable-background:new 0 0 512.001 512.001;" xml:space="preserve">
<g>
	<g>
		<path d="M469.333,277.333h-27.194c1.29-1.551,2.732-2.848,3.923-4.552c2.583-3.667,2.583-8.563,0-12.229
			c-11.5-16.448-27.833-25.885-44.792-25.885h-77.208c-16.958,0-33.292,9.438-44.792,25.885c-2.583,3.667-2.583,8.563,0,12.229
			c1.191,1.704,2.633,3.001,3.923,4.552h-54.388c1.29-1.551,2.732-2.848,3.923-4.552c2.583-3.667,2.583-8.563,0-12.229
			c-11.5-16.448-27.833-25.885-44.792-25.885h-77.208c-16.958,0-33.292,9.438-44.792,25.885c-2.583,3.667-2.583,8.563,0,12.229
			c1.191,1.704,2.633,3.001,3.923,4.552H42.667C19.146,277.333,0,296.469,0,320v42.667c0,23.531,19.146,42.667,42.667,42.667v32
			c0,5.896,4.771,10.667,10.667,10.667h21.333c4.042,0,7.729-2.281,9.542-5.896l18.385-36.771h306.813l18.385,36.771
			c1.813,3.615,5.5,5.896,9.542,5.896h21.333c5.896,0,10.667-4.771,10.667-10.667v-32c23.521,0,42.667-19.135,42.667-42.667V320
			C512,296.469,492.854,277.333,469.333,277.333z"/>
	</g>
</g>
<g>
	<g>
		<path d="M448,64H64c-23.521,0-42.667,19.135-42.667,42.667v140.104c0,3.094,1.355,6.042,3.688,8.073
			c2.354,2.031,5.438,2.927,8.521,2.479l2.75-0.49c0.771-0.146,1.5-0.323,2.292-0.375c3.604-0.219,6.854-2.25,8.646-5.385
			c0.208-0.375,1.042-2.365,1.208-2.75c15.583-22.24,38.292-34.99,62.292-34.99h77.208c22.438,0,44.167,11.51,59.604,31.594
			c4.042,5.229,12.875,5.229,16.917,0c15.438-20.083,37.167-31.594,59.604-31.594h77.208c24,0,46.708,12.75,62.229,35.052
			c0.167,0.385,1.063,2.313,1.271,2.688c1.792,3.135,5.042,5.167,8.646,5.385c0.792,0.052,1.521,0.229,2.292,0.375l2.75,0.49
			c0.521,0.073,1.021,0.115,1.542,0.115c2.542,0,5.021-0.917,6.979-2.594c2.333-2.031,3.688-4.979,3.688-8.073V106.667
			C490.667,83.135,471.521,64,448,64z"/>
	</g>
</g>
<g>
</g>
<g>
</g>
<g>
</g>
<g>
</g>
<g>
</g>
<g>
</g>
<g>
</g>
<g>
</g>
<g>
</g>
<g>
</g>
<g>
</g>
<g>
</g>
<g>
</g>
<g>
</g>
<g>
</g>
</svg>
