<svg height="512pt" viewBox="0 0 512 512" width="512pt" xmlns="http://www.w3.org/2000/svg"><path d="m402 90h-15v30h15c8.269531 0 15-6.730469 15-15s-6.730469-15-15-15zm0 0"/><path d="m325 512c-24.8125 0-45-20.1875-45-45s20.1875-45 45-45 45 20.1875 45 45-20.1875 45-45 45zm0 0"/><path d="m110 512c-24.8125 0-45-20.1875-45-45s20.1875-45 45-45 45 20.1875 45 45-20.1875 45-45 45zm0 0"/><path d="m331.902344 270.601562c-10.421875-23.449218-33.734375-38.601562-59.394532-38.601562h-42.507812v90h124.746094zm0 0"/><path d="m200 232h-47.507812c-25.660157 0-48.972657 15.152344-59.394532 38.601562l-22.84375 51.398438h129.746094zm0 0"/><path d="m392 0c-66.167969 0-120 53.832031-120 120 0 61.089844 45.886719 111.660156 105 119.0625v85.058594c10.585938 2.058594 20.660156 5.570312 30 10.324218v-95.382812c59.113281-7.402344 105-57.972656 105-119.0625 0-66.167969-53.832031-120-120-120zm10 150h-15v15c0 8.285156-6.714844 15-15 15s-15-6.714844-15-15v-90c0-8.285156 6.714844-15 15-15h30c24.8125 0 45 20.1875 45 45s-20.1875 45-45 45zm0 0"/><path d="m405 402c-8.285156 0-15-6.714844-15-15s6.714844-15 15-15h4.75c-14.792969-12.472656-33.886719-20-54.75-20h-300c-30.375 0-55 24.625-55 55v50c0 8.285156 6.714844 15 15 15h20.183594c-.109375-1.65625-.183594-3.316406-.183594-5 0-41.355469 33.644531-75 75-75s75 33.644531 75 75c0 1.683594-.074219 3.34375-.183594 5h65.367188c-.109375-1.65625-.183594-3.316406-.183594-5 0-41.355469 33.644531-75 75-75s75 33.644531 75 75c0 1.683594-.074219 3.34375-.183594 5h25.183594c8.285156 0 15-6.714844 15-15v-20c0-12.480469-2.714844-24.324219-7.546875-35zm0 0"/></svg>