<?xml version="1.0" encoding="iso-8859-1"?>
<!-- Generator: Adobe Illustrator 19.0.0, SVG Export Plug-In . SVG Version: 6.00 Build 0)  -->
<svg version="1.1" id="Capa_1" xmlns="http://www.w3.org/2000/svg" xmlns:xlink="http://www.w3.org/1999/xlink" x="0px" y="0px"
	 viewBox="0 0 512 512" style="enable-background:new 0 0 512 512;" xml:space="preserve">
<g>
	<g>
		<g>
			<polygon points="329.243,319.997 353.427,319.997 341.335,290.983 			"/>
			<path d="M410.392,234.662H101.613c-10.223,22.229-28.186,40.192-50.415,50.415v69.837c22.229,10.223,40.192,28.194,50.415,50.415
				h308.779c10.214-22.221,28.186-40.192,50.406-50.415v-69.837C438.578,274.854,420.606,256.892,410.392,234.662z M162.132,379.729
				h-34.133c-4.71,0-8.533-3.823-8.533-8.533s3.823-8.533,8.533-8.533h34.133c9.412,0,17.067-7.654,17.067-17.067
				c0-9.412-7.654-17.067-17.067-17.067h-8.533c-18.816,0-34.133-15.309-34.133-34.133c0-18.816,15.317-34.133,34.133-34.133h25.6
				c4.71,0,8.533,3.823,8.533,8.533c0,4.71-3.823,8.533-8.533,8.533h-25.6c-9.412,0-17.067,7.654-17.067,17.067
				c0,9.412,7.654,17.067,17.067,17.067h8.533c18.825,0,34.133,15.317,34.133,34.133
				C196.265,364.42,180.956,379.729,162.132,379.729z M264.532,319.996h-25.6v51.2c0,4.71-3.823,8.533-8.533,8.533
				s-8.533-3.823-8.533-8.533v-102.4c0-4.71,3.823-8.533,8.533-8.533h34.133c16.469,0,29.867,13.397,29.867,29.867
				C294.398,306.598,281.001,319.996,264.532,319.996z M387.284,379.072c-1.075,0.452-2.185,0.666-3.277,0.666
				c-3.345,0-6.519-1.98-7.885-5.257l-15.59-37.419h-38.4l-15.59,37.419c-1.365,3.277-4.54,5.257-7.876,5.257
				c-1.092,0-2.21-0.213-3.285-0.666c-4.343-1.809-6.4-6.81-4.591-11.162c0,0,17.792-42.692,17.801-42.709l12.45-29.884
				c2.773-6.664,5.555-13.329,8.329-19.994c2.065-4.949,3.925-13.047,9.626-14.711c2.722-0.794,5.845-0.102,7.945,1.818
				c2.611,2.389,3.652,6.4,4.992,9.626c1.28,3.063,2.56,6.135,3.84,9.199l9.515,22.835c2.901,6.98,5.41,14.345,8.798,21.129
				l17.792,42.692C393.684,372.262,391.636,377.263,387.284,379.072z"/>
			<path d="M503.467,243.2c-28.237,0-51.2-22.972-51.2-51.2c0-4.719-3.823-8.533-8.533-8.533h-14.319
				c-13.542-9.728-85.777-61.406-131.251-90.351C295.646,71.97,277.811,55.467,256,55.467c-21.811,0-39.646,16.503-42.163,37.649
				c-45.474,28.945-117.709,80.623-131.251,90.351H68.267c-4.71,0-8.533,3.814-8.533,8.533c0,28.228-22.963,51.2-51.2,51.2
				c-4.71,0-8.533,3.814-8.533,8.533v136.533c0,4.71,3.823,8.533,8.533,8.533c28.237,0,51.2,22.963,51.2,51.2
				c0,4.71,3.823,8.533,8.533,8.533h375.467c4.71,0,8.533-3.823,8.533-8.533c0-28.237,22.963-51.2,51.2-51.2
				c4.71,0,8.533-3.823,8.533-8.533V251.733C512,247.014,508.177,243.2,503.467,243.2z M256,72.533c14.114,0,25.6,11.477,25.6,25.6
				c0,14.114-11.486,25.6-25.6,25.6s-25.6-11.486-25.6-25.6C230.4,84.011,241.886,72.533,256,72.533z M215.876,112.094
				c5.82,16.648,21.513,28.706,40.124,28.706s34.313-12.058,40.124-28.706c33.4,21.641,77.841,52.855,103.91,71.373H111.966
				C138.035,164.949,182.477,133.743,215.876,112.094z M477.867,360.55c0,3.516-2.15,6.665-5.419,7.945
				c-22.135,8.67-39.808,26.342-48.478,48.478c-1.28,3.277-4.429,5.427-7.945,5.427H95.974c-3.516,0-6.665-2.15-7.945-5.427
				c-8.67-22.135-26.342-39.808-48.478-48.478c-3.268-1.28-5.419-4.429-5.419-7.945v-81.109c0-3.516,2.15-6.664,5.419-7.945
				c22.135-8.67,39.808-26.342,48.478-48.478c1.28-3.268,4.429-5.419,7.945-5.419h320.051c3.516,0,6.665,2.15,7.945,5.419
				c8.67,22.135,26.342,39.808,48.478,48.478c3.268,1.28,5.419,4.429,5.419,7.945V360.55z"/>
			<path d="M264.533,277.33h-25.6v25.6h25.6c7.057,0,12.8-5.743,12.8-12.8S271.59,277.33,264.533,277.33z"/>
		</g>
	</g>
</g>
<g>
</g>
<g>
</g>
<g>
</g>
<g>
</g>
<g>
</g>
<g>
</g>
<g>
</g>
<g>
</g>
<g>
</g>
<g>
</g>
<g>
</g>
<g>
</g>
<g>
</g>
<g>
</g>
<g>
</g>
</svg>
